<svg width="32" height="32" viewBox="0 0 32 32" fill="black" xmlns="http://www.w3.org/2000/svg">
    <path d="M16 0C24.8366 0 32 7.16344 32 16C32 24.8366 24.8366 32 16 32C7.16344 32 0 24.8366 0 16C0 7.16344 7.16344 0 16 0ZM18 4.75C17.138 4.75 16.3116 5.09266 15.7021 5.70215C15.0927 6.31164 14.75 7.13805 14.75 8V24C14.75 24.1989 14.6709 24.3896 14.5303 24.5303C14.3896 24.6709 14.1989 24.75 14 24.75C13.8011 24.75 13.6104 24.6709 13.4697 24.5303C13.3291 24.3896 13.25 24.1989 13.25 24V11C13.25 10.138 12.9073 9.31164 12.2979 8.70215C11.7264 8.13074 10.9644 7.79375 10.1611 7.75391L10 7.75C9.13805 7.75 8.31164 8.09266 7.70215 8.70215C7.09266 9.31164 6.75 10.138 6.75 11V15L6.73535 15.1475C6.70648 15.2914 6.63565 15.4249 6.53027 15.5303C6.38962 15.6709 6.19891 15.75 6 15.75C5.30964 15.75 4.75 16.3096 4.75 17C4.75 17.6904 5.30964 18.25 6 18.25C6.86195 18.25 7.68836 17.9073 8.29785 17.2979C8.90734 16.6884 9.25 15.862 9.25 15V11C9.25 10.8011 9.32907 10.6104 9.46973 10.4697C9.61038 10.3291 9.80109 10.25 10 10.25L10.1475 10.2646C10.2914 10.2935 10.4249 10.3644 10.5303 10.4697C10.6709 10.6104 10.75 10.8011 10.75 11V24C10.75 24.862 11.0927 25.6884 11.7021 26.2979C12.3116 26.9073 13.138 27.25 14 27.25C14.862 27.25 15.6884 26.9073 16.2979 26.2979C16.9073 25.6884 17.25 24.862 17.25 24V8C17.25 7.80109 17.3291 7.61038 17.4697 7.46973C17.6104 7.32907 17.8011 7.25 18 7.25L18.1475 7.26465C18.2914 7.29352 18.4249 7.36435 18.5303 7.46973C18.6709 7.61038 18.75 7.80109 18.75 8V21L18.7539 21.1611C18.7937 21.9644 19.1307 22.7264 19.7021 23.2979C20.3116 23.9073 21.138 24.25 22 24.25C22.862 24.25 23.6884 23.9073 24.2979 23.2979C24.9073 22.6884 25.25 21.862 25.25 21V17C25.25 16.8011 25.3291 16.6104 25.4697 16.4697C25.6104 16.3291 25.8011 16.25 26 16.25C26.6904 16.25 27.25 15.6904 27.25 15C27.25 14.3096 26.6904 13.75 26 13.75C25.138 13.75 24.3116 14.0927 23.7021 14.7021C23.0927 15.3116 22.75 16.138 22.75 17V21C22.75 21.1989 22.6709 21.3896 22.5303 21.5303C22.3896 21.6709 22.1989 21.75 22 21.75C21.8011 21.75 21.6104 21.6709 21.4697 21.5303C21.3291 21.3896 21.25 21.1989 21.25 21V8C21.25 7.13805 20.9073 6.31164 20.2979 5.70215C19.7264 5.13074 18.9644 4.79375 18.1611 4.75391L18 4.75Z" />
</svg>